<svg id="_004-analysis" data-name="004-analysis" xmlns="http://www.w3.org/2000/svg" width="66.552" height="64" viewBox="0 0 66.552 64">
  <g id="Group_305" data-name="Group 305" transform="translate(8.863 6.403)">
    <g id="Group_304" data-name="Group 304">
      <path id="Path_40" data-name="Path 40" d="M96.954,62.712a16.751,16.751,0,1,0,0,23.689,16.674,16.674,0,0,0,0-23.689ZM74.47,64.061a15.007,15.007,0,0,1,21.126,0,14.7,14.7,0,0,1,4.17,8.027l-5.233,5.085a3.43,3.43,0,0,0-4.52,1.076l-7.692-2.4c0-.022,0-.044,0-.066a3.421,3.421,0,0,0-6.843,0,3.361,3.361,0,0,0,.452,1.685L71.9,81.625A14.8,14.8,0,0,1,74.47,64.061ZM94.359,80.135a1.5,1.5,0,1,1-1.5-1.492A1.5,1.5,0,0,1,94.359,80.135ZM80.4,75.784a1.5,1.5,0,1,1-1.5-1.492A1.5,1.5,0,0,1,80.4,75.784ZM95.6,85.052a14.983,14.983,0,0,1-22.645-1.765l4.363-4.494a3.43,3.43,0,0,0,4.432-1.123l7.692,2.4c0,.022,0,.044,0,.066a3.421,3.421,0,0,0,6.843,0,3.362,3.362,0,0,0-.4-1.6l4.1-3.979A14.7,14.7,0,0,1,95.6,85.052Z" transform="translate(-68.183 -57.806)"/>
    </g>
  </g>
  <g id="Group_307" data-name="Group 307" transform="translate(17.212 10.275)">
    <g id="Group_306" data-name="Group 306">
      <path id="Path_41" data-name="Path 41" d="M132.414,90.931l1.26,1.44A11.138,11.138,0,0,1,144.568,90.3l.632-1.8A13.073,13.073,0,0,0,132.414,90.931Z" transform="translate(-132.414 -87.783)"/>
    </g>
  </g>
  <g id="Group_309" data-name="Group 309" transform="translate(31.462 12.149)">
    <g id="Group_308" data-name="Group 308">
      <path id="Path_42" data-name="Path 42" d="M243.045,102.292l-1,1.629a11.02,11.02,0,0,1,1.449,1.048l1.252-1.446A12.967,12.967,0,0,0,243.045,102.292Z" transform="translate(-242.046 -102.292)"/>
    </g>
  </g>
  <g id="Group_311" data-name="Group 311" transform="translate(20.875 33.338)">
    <g id="Group_310" data-name="Group 310">
      <path id="Path_43" data-name="Path 43" d="M167.733,266.907a11.136,11.136,0,0,1-6.421-.55l-.714,1.771a13.038,13.038,0,0,0,4.828.927,13.181,13.181,0,0,0,2.7-.281Z" transform="translate(-160.598 -266.357)"/>
    </g>
  </g>
  <g id="Group_313" data-name="Group 313">
    <g id="Group_312" data-name="Group 312">
      <path id="Path_44" data-name="Path 44" d="M49.763,46.706l-1.394,1.385L44.91,44.418a23.051,23.051,0,0,0,2.955-20.046l2.744-2.666a3.424,3.424,0,0,0,5.042-2.993,3.36,3.36,0,0,0-.374-1.542l5.89-5.723v2.958h1.92V8.227H56.869v1.908h2.9L53.96,15.782a3.423,3.423,0,0,0-5.151,2.931,3.36,3.36,0,0,0,.433,1.653l-2.1,2.043a22.969,22.969,0,0,0-4.984-7.365,23.385,23.385,0,0,0-32.884,0A23.03,23.03,0,0,0,6.626,44.578L5.009,46.243a3.395,3.395,0,1,0,1.833,3.009,3.36,3.36,0,0,0-.452-1.685L7.8,46.113q.69.827,1.468,1.6A23.406,23.406,0,0,0,38.782,50.49l3.467,3.682L40.807,55.6,57.6,72.227l8.956-8.9ZM52.23,17.221a1.492,1.492,0,1,1-1.5,1.492A1.5,1.5,0,0,1,52.23,17.221ZM3.421,50.744a1.492,1.492,0,1,1,1.5-1.492A1.5,1.5,0,0,1,3.421,50.744Zm7.208-4.376a21.123,21.123,0,0,1,0-29.975,21.455,21.455,0,0,1,30.168,0,21.123,21.123,0,0,1,0,29.975A21.454,21.454,0,0,1,10.629,46.368Zm29.7,2.977a23.316,23.316,0,0,0,3.409-3.375l3.267,3.47-3.4,3.381Zm17.26,20.186L43.525,55.6l6.24-6.2,14.069,13.93Z" transform="translate(0 -8.227)"/>
    </g>
  </g>
  <g id="Group_315" data-name="Group 315" transform="translate(47.017 43.944)">
    <g id="Group_314" data-name="Group 314">
      <path id="Path_45" data-name="Path 45" d="M364.456,348.478l-2.747,2.73,1.358,1.349,1.39-1.381,5.3,5.265,1.358-1.349Z" transform="translate(-361.709 -348.478)"/>
    </g>
  </g>
  <g id="Group_317" data-name="Group 317" transform="translate(56.709 52.181)">
    <g id="Group_316" data-name="Group 316" transform="translate(0 0)">
      <path id="Path_64" data-name="Path 64" d="M0,0,1.914.006,1.92,2.012.006,2.006Z" transform="translate(0 1.358) rotate(-45)"/>
    </g>
  </g>
  <g id="Group_319" data-name="Group 319" transform="translate(10.402 47.223)">
    <g id="Group_318" data-name="Group 318">
      <rect id="Rectangle_37" data-name="Rectangle 37" width="1.92" height="2.078"/>
    </g>
  </g>
  <g id="Group_321" data-name="Group 321" transform="translate(10.402 58.872)">
    <g id="Group_320" data-name="Group 320">
      <rect id="Rectangle_38" data-name="Rectangle 38" width="1.92" height="2.078"/>
    </g>
  </g>
  <g id="Group_323" data-name="Group 323" transform="translate(26.215 51.231)">
    <g id="Group_322" data-name="Group 322">
      <rect id="Rectangle_39" data-name="Rectangle 39" width="1.92" height="2.078"/>
    </g>
  </g>
  <g id="Group_325" data-name="Group 325" transform="translate(53.731 34.074)">
    <g id="Group_324" data-name="Group 324">
      <rect id="Rectangle_40" data-name="Rectangle 40" width="1.92" height="2.078"/>
    </g>
  </g>
  <g id="Group_327" data-name="Group 327" transform="translate(55.91 17.521)">
    <g id="Group_326" data-name="Group 326">
      <rect id="Rectangle_41" data-name="Rectangle 41" width="1.92" height="2.078"/>
    </g>
  </g>
  <g id="Group_329" data-name="Group 329" transform="translate(62.273 26.286)">
    <g id="Group_328" data-name="Group 328">
      <rect id="Rectangle_42" data-name="Rectangle 42" width="1.92" height="2.078"/>
    </g>
  </g>
</svg>
