<svg id="brain" xmlns="http://www.w3.org/2000/svg" width="230" height="512" viewBox="0 0 230 512">
  <g id="Group_457" data-name="Group 457" transform="translate(170 83)">
    <g id="Group_456" data-name="Group 456">
      <path id="Path_344" data-name="Path 344" d="M306,83a10,10,0,1,1-10,10A10,10,0,0,1,306,83Z" transform="translate(-296 -83)" fill="#fff"/>
    </g>
  </g>
  <g id="Group_461" data-name="Group 461">
    <g id="Group_460" data-name="Group 460">
      <path id="Path_346" data-name="Path 346" d="M268.877,298.882A79.974,79.974,0,0,1,256,256a69.456,69.456,0,0,1,25.332-53.731A67.6,67.6,0,0,1,276,176c0-27.855,16.256-53.8,40.425-65.92a59.934,59.934,0,0,1,45.52-65.4C373.44,18.1,399.025,0,426,0c25.11,0,47.631,14.646,60,36.016v432.49C472.216,494.18,445.688,512,416,512a80.206,80.206,0,0,1-69.086-40.014c-.3.009-.6.014-.914.014-37.944,0-70-33.43-70-73a64.019,64.019,0,0,1,.9-10.482,69.035,69.035,0,0,1-8.022-89.636ZM326,329a67.492,67.492,0,0,1-42.663-15.729A49.207,49.207,0,0,0,276,339a49.785,49.785,0,0,0,18.227,38.253,10,10,0,0,1,3.326,10.025A49.342,49.342,0,0,0,296,399c0,31.04,28.075,56.126,53.387,52.666.7-.1,1.407-.191,2.114-.271a9.993,9.993,0,0,1,10.2,5.726A60.171,60.171,0,0,0,416,492c32.523,0,60-28.851,60-63a60.068,60.068,0,0,0-60-60,10,10,0,0,1,0-20,79.815,79.815,0,0,1,60,27.169V186a20.023,20.023,0,0,0-20-20,10,10,0,0,1,0-20,39.741,39.741,0,0,1,20,5.381V73c0-28.234-23.364-53-50-53-17.256,0-31.92,10.624-40.739,23.714a59.6,59.6,0,0,1,33.166,16.851,10,10,0,1,1-14.133,14.15A40.007,40.007,0,0,0,336,103c0,.264.02.521.025.784A64.844,64.844,0,0,1,346,103c37.944,0,70,33.43,70,73a10,10,0,0,1-20,0c0-28.233-23.364-53-50-53-27.982,0-50,26-50,53a49.209,49.209,0,0,0,6.7,24.478,10,10,0,0,1-3.348,13.38A49.722,49.722,0,0,0,276,256c0,28.331,22.941,53,50,53a10,10,0,0,1,0,20Z" transform="translate(-256)" fill="#fff"/>
    </g>
  </g>
  <g id="Group_469" data-name="Group 469" transform="translate(80 166)">
    <g id="Group_468" data-name="Group 468">
      <path id="Path_350" data-name="Path 350" d="M316,266a30.053,30.053,0,0,0,28.6-20.943A70.1,70.1,0,0,1,286,176a10,10,0,0,1,20,0,50,50,0,0,0,83.333,37.267,10,10,0,1,1,13.334,14.906A69.886,69.886,0,0,1,365.1,245.4,50.076,50.076,0,0,1,316,286a10,10,0,0,1,0-20Z" transform="translate(-286 -166)" fill="#fff"/>
    </g>
  </g>
  <g id="Group_471" data-name="Group 471" transform="translate(80 389)">
    <g id="Group_470" data-name="Group 470">
      <path id="Path_351" data-name="Path 351" d="M336,389c37.944,0,70,33.43,70,73a10,10,0,0,1-20,0c0-28.233-23.364-53-50-53a10,10,0,0,1,0-20Z" transform="translate(-326 -389)" fill="#fff"/>
    </g>
  </g>
  <g id="Group_473" data-name="Group 473" transform="translate(90.399 309)">
    <g id="Group_472" data-name="Group 472">
      <path id="Path_352" data-name="Path 352" d="M307.3,354.609A89.8,89.8,0,0,1,385.6,309a10,10,0,0,1,0,20,69.856,69.856,0,0,0-60.9,35.471,10,10,0,0,1-17.4-9.862Z" transform="translate(-306 -309)" fill="#fff"/>
    </g>
  </g>
</svg>
