<svg id="_005-observatory" data-name="005-observatory" xmlns="http://www.w3.org/2000/svg" width="64.419" height="64" viewBox="0 0 64.419 64">
  <g id="Group_331" data-name="Group 331">
    <g id="Group_330" data-name="Group 330">
      <path id="Path_46" data-name="Path 46" d="M1.079,136.555H1.068a1.067,1.067,0,1,0,.011,2.133,1.067,1.067,0,1,0,0-2.133Z" transform="translate(0 -119.488)"/>
      <path id="Path_47" data-name="Path 47" d="M103.479,2.155a1.067,1.067,0,1,0,0-2.133h-.011a1.067,1.067,0,1,0,.011,2.133Z" transform="translate(-89.517 -0.022)"/>
      <path id="Path_48" data-name="Path 48" d="M496.012,170.688H496a1.079,1.079,0,1,0,.011,0Z" transform="translate(-432.667 -149.355)"/>
      <path id="Path_49" data-name="Path 49" d="M279.5,16.683a17.059,17.059,0,0,0-6.026-2.463,1.067,1.067,0,1,0-.416,2.093,15.077,15.077,0,0,1,11.575,10.72,1.073,1.073,0,0,0,1.035.787,1.119,1.119,0,0,0,.282-.037,1.065,1.065,0,0,0,.754-1.31,16.659,16.659,0,0,0-1.4-3.489l4.256-4.228a2.156,2.156,0,0,0,3.036,0l3.036-3.017h0a2.158,2.158,0,0,0,3.036,0l3.038-3.018a2.128,2.128,0,0,0,0-3.017L292.593.654a2.16,2.16,0,0,0-3.037,0l-3.037,3.018a2.127,2.127,0,0,0,0,3.017L283.483,9.7a2.125,2.125,0,0,0,0,3.017ZM288.038,8.2l3.795,3.771a1.077,1.077,0,0,0,1.518,0,1.063,1.063,0,0,0,0-1.508L288.8,5.934l-.759-.754,3.036-3.018,9.11,9.051-3.037,3.017-.76-.754a1.09,1.09,0,0,0-.355-.234,1.077,1.077,0,0,0-1.163.234l-3.795,3.772-5.314-5.28L285,11.213ZM285,14.23l3.037,3.018-3.894,3.87a17.381,17.381,0,0,0-2.911-3.144Z" transform="translate(-237.945 -0.029)"/>
      <path id="Path_50" data-name="Path 50" d="M16.853,64.022A2.142,2.142,0,0,0,19,66.155v22.4a1.074,1.074,0,0,0,2.147,0v-22.4H68.384a1.067,1.067,0,1,0,0-2.133H19V61.888h1.074a1.07,1.07,0,0,0,1.074-1.067c0-13.757,11.317-24.533,25.765-24.533,3.836,0,7.019.272,10.084,1.6a1.067,1.067,0,1,0,.857-1.955,26.971,26.971,0,0,0-10.941-1.778c-15.277,0-27.317,11.161-27.886,25.6H19a2.142,2.142,0,0,0-2.147,2.133v2.133Z" transform="translate(-14.733 -29.888)"/>
      <path id="Path_51" data-name="Path 51" d="M26.461,28.822a1.074,1.074,0,0,0,2.147,0,1.067,1.067,0,1,0,0-2.133,1.074,1.074,0,0,0-2.147,0,1.067,1.067,0,1,0,0,2.133Z" transform="translate(-22.193 -22.422)"/>
      <path id="Path_52" data-name="Path 52" d="M131.062,358.422a1.07,1.07,0,0,0,1.074-1.067v-9.6a6.441,6.441,0,0,0-12.883,0v9.6a1.074,1.074,0,0,0,2.147,0v-9.6a4.294,4.294,0,0,1,8.588,0v9.6A1.07,1.07,0,0,0,131.062,358.422Z" transform="translate(-104.25 -298.688)"/>
      <path id="Path_53" data-name="Path 53" d="M272.853,344.555a3.221,3.221,0,1,0,3.221-3.2A3.214,3.214,0,0,0,272.853,344.555Zm4.294,0a1.074,1.074,0,1,1-1.073-1.067A1.071,1.071,0,0,1,277.147,344.555Z" transform="translate(-238.526 -298.688)"/>
      <path id="Path_54" data-name="Path 54" d="M119.585,171.639h-.049a27.386,27.386,0,0,0-1.822-8.934,1.076,1.076,0,0,0-1.388-.61,1.063,1.063,0,0,0-.614,1.379,25.271,25.271,0,0,1,1.677,8.165H69.128a1.067,1.067,0,1,0,0,2.133h50.457v2.133h-1.074a1.07,1.07,0,0,0-1.074,1.067v23.467a1.074,1.074,0,0,0,2.147,0v-22.4a2.142,2.142,0,0,0,2.147-2.133v-2.133A2.143,2.143,0,0,0,119.585,171.639Z" transform="translate(-59.492 -141.772)"/>
      <path id="Path_55" data-name="Path 55" d="M358.187,344.555a3.221,3.221,0,1,0,3.221-3.2A3.214,3.214,0,0,0,358.187,344.555Zm4.294,0a1.074,1.074,0,1,1-1.074-1.067A1.071,1.071,0,0,1,362.481,344.555Z" transform="translate(-313.124 -298.688)"/>
      <path id="Path_56" data-name="Path 56" d="M75.9,494.955H17.928a1.067,1.067,0,1,0,0,2.133H75.9a1.067,1.067,0,1,0,0-2.133Z" transform="translate(-14.734 -433.088)"/>
    </g>
  </g>
</svg>
