<svg id="_002-presentation" data-name="002-presentation" xmlns="http://www.w3.org/2000/svg" width="58.906" height="64" viewBox="0 0 58.906 64">
  <g id="Group_283" data-name="Group 283" transform="translate(45.901 8.521)">
    <g id="Group_282" data-name="Group 282">
      <path id="Path_31" data-name="Path 31" d="M386.739,68.164V70.01h5.39V80.086h1.858V68.164Z" transform="translate(-386.739 -68.164)"/>
    </g>
  </g>
  <g id="Group_285" data-name="Group 285" transform="translate(51.29 22.988)">
    <g id="Group_284" data-name="Group 284">
      <rect id="Rectangle_34" data-name="Rectangle 34" width="1.858" height="2.037"/>
    </g>
  </g>
  <g id="Group_287" data-name="Group 287">
    <g id="Group_286" data-name="Group 286">
      <path id="Path_32" data-name="Path 32" d="M80.8,7.184V0H27.405V7.184h2.554V11.41a10.289,10.289,0,0,0,0,13.575v3.809A15.84,15.84,0,0,0,21.89,42.568V53.576H45.42L40.8,64h7.7L54.21,51.116,59.925,64h7.7L61.3,49.751H80.8V42.567H78.242V7.184ZM37.839,9.674a8.561,8.561,0,0,1,8.577,8.449,19.259,19.259,0,0,1-10.21-2.9,7.375,7.375,0,0,0,.868-1.288L35.4,13.132c-.015.032-1.485,2.939-6.131,4.65A8.565,8.565,0,0,1,37.839,9.674ZM59.431,26.721H43.773A10.386,10.386,0,1,0,31.817,9.736V7.184H76.384V42.566H47.131V37.414h12.3a5.347,5.347,0,1,0,0-10.693ZM29.4,19.7a15.573,15.573,0,0,0,5.511-3.113c1.494,1.076,5.159,3.161,11.324,3.383A8.588,8.588,0,0,1,29.4,19.7Zm12.83,8.871-4.387,5-3.906-4.449a14.141,14.141,0,0,1,3.906-.548h4.387ZM33.1,27.434c-.438.135-.866.29-1.287.461V26.659A10.458,10.458,0,0,0,33.1,27.434ZM45.273,34.56V51.729H30.405V43.042H28.547v8.688h-4.8V42.568A14.017,14.017,0,0,1,32.066,29.8l4.844,5.517v6.674h1.858V35.314l5.924-6.747H59.431a3.5,3.5,0,1,1,0,7h-12.3V34.56H45.273Zm2.01,27.594H43.645l5.5-12.4h3.638Zm17.492,0H61.137l-5.5-12.4h3.638ZM78.938,44.413V47.9H47.131V44.413ZM29.959,5.338h-.7V1.846H78.938V5.338H29.959Z" transform="translate(-21.89)"/>
    </g>
  </g>
  <g id="Group_289" data-name="Group 289" transform="translate(15.02 43.994)">
    <g id="Group_288" data-name="Group 288">
      <rect id="Rectangle_35" data-name="Rectangle 35" width="1.858" height="2.367"/>
    </g>
  </g>
  <g id="Group_291" data-name="Group 291" transform="translate(29.939 12.503)">
    <g id="Group_290" data-name="Group 290">
      <path id="Path_33" data-name="Path 33" d="M273.926,100.027a3.334,3.334,0,0,0-3.341,3.32,3.3,3.3,0,0,0,.095.782l-5.152,2.929a3.313,3.313,0,1,0,1.019,2.384,3.3,3.3,0,0,0-.095-.783l5.152-2.929a3.329,3.329,0,1,0,2.322-5.7Zm-10.72,10.889a1.474,1.474,0,1,1,1.483-1.474A1.48,1.48,0,0,1,263.206,110.916Zm10.72-6.1a1.474,1.474,0,1,1,1.483-1.474A1.48,1.48,0,0,1,273.926,104.821Z" transform="translate(-259.864 -100.027)"/>
    </g>
  </g>
  <g id="Group_293" data-name="Group 293" transform="translate(44.972 28.834)">
    <g id="Group_292" data-name="Group 292">
      <path id="Path_34" data-name="Path 34" d="M382.7,230.674a3.32,3.32,0,1,0,3.341,3.32A3.334,3.334,0,0,0,382.7,230.674Zm0,4.794a1.474,1.474,0,1,1,1.483-1.474A1.48,1.48,0,0,1,382.7,235.468Z" transform="translate(-379.355 -230.674)"/>
    </g>
  </g>
</svg>
