<svg id="_003-target" data-name="003-target" xmlns="http://www.w3.org/2000/svg" width="56.798" height="64" viewBox="0 0 56.798 64">
  <g id="Group_295" data-name="Group 295" transform="translate(13.622 5.391)">
    <g id="Group_294" data-name="Group 294">
      <path id="Path_35" data-name="Path 35" d="M145.464,43.126a24.156,24.156,0,0,0-7.677,3.646l1.073,1.5a22.314,22.314,0,0,1,7.092-3.368Z" transform="translate(-137.787 -43.126)"/>
    </g>
  </g>
  <g id="Group_297" data-name="Group 297" transform="translate(9.255 11.306)">
    <g id="Group_296" data-name="Group 296">
      <path id="Path_36" data-name="Path 36" d="M104.48,90.448c-.569.547-1.119,1.129-1.633,1.731l1.4,1.2c.476-.556.984-1.094,1.51-1.6Z" transform="translate(-102.846 -90.448)"/>
    </g>
  </g>
  <g id="Group_299" data-name="Group 299" transform="translate(44.003 37.488)">
    <g id="Group_298" data-name="Group 298">
      <path id="Path_37" data-name="Path 37" d="M385.41,299.906a22.622,22.622,0,0,1-4.574,7.009l1.334,1.277a24.461,24.461,0,0,0,4.946-7.579Z" transform="translate(-380.836 -299.906)"/>
    </g>
  </g>
  <g id="Group_301" data-name="Group 301" transform="translate(49.558 32.727)">
    <g id="Group_300" data-name="Group 300">
      <path id="Path_38" data-name="Path 38" d="M425.67,261.82c-.107.618-.242,1.24-.4,1.847l1.787.468c.172-.658.318-1.33.434-2Z" transform="translate(-425.269 -261.82)"/>
    </g>
  </g>
  <g id="Group_303" data-name="Group 303">
    <g id="Group_302" data-name="Group 302">
      <path id="Path_39" data-name="Path 39" d="M85.606,7.03,84.3,5.724,83.007,7.017H79.751l1.074-1.074L79.519,4.637,78.445,5.711V2.455l1.148-1.149L78.287,0,72.268,6.019A27.754,27.754,0,0,0,28.808,28.9,27.786,27.786,0,0,0,48.892,55.584V64H64.233V55.583a27.767,27.767,0,0,0,15.21-42.39Zm-11.844.108h0L76.6,4.3V7.558L75.283,8.873l1.306,1.306L77.9,8.863h3.257L78.324,11.7H73.762ZM57.4,3.01A25.674,25.674,0,0,1,71.915,8.034V12.24l-4.728,4.728A15.922,15.922,0,0,0,57.4,12.935Zm0,15.551V14.786a14.082,14.082,0,0,1,8.484,3.49l-7.755,7.755a3.272,3.272,0,1,0,1.306,1.306l7.755-7.755a14.084,14.084,0,0,1,3.469,8.175H66.592V29.6h4.092A14.16,14.16,0,0,1,57.4,43.016V38.8H55.549v4.206A14.161,14.161,0,0,1,42.437,29.6h3.916V27.757H42.466A14.163,14.163,0,0,1,55.549,14.8v3.764Zm-.182,10.993.764-.764c0,.037.006.074.006.111a1.423,1.423,0,1,1-1.423-1.423c.038,0,.075,0,.111.006l-.764.764ZM55.549,3.017v9.93a16.011,16.011,0,0,0-14.935,14.81H30.681A25.939,25.939,0,0,1,55.549,3.017ZM30.664,29.6h9.925a16.009,16.009,0,0,0,14.96,15.252v9.93A25.938,25.938,0,0,1,30.664,29.6ZM62.386,58.39H56.562v1.847h5.824v1.917H50.738v-6.11a28.084,28.084,0,0,0,11.648,0Zm-4.99-3.6V44.867A16.009,16.009,0,0,0,72.532,29.6h9.925A25.937,25.937,0,0,1,57.4,54.792ZM82.441,27.757H72.507a15.924,15.924,0,0,0-4.013-9.483l4.728-4.728h4.206A25.657,25.657,0,0,1,82.441,27.757Z" transform="translate(-28.808)"/>
    </g>
  </g>
</svg>
