<svg id="_001-sketch" data-name="001-sketch" xmlns="http://www.w3.org/2000/svg" width="64.206" height="64" viewBox="0 0 64.206 64">
  <g id="Group_279" data-name="Group 279" transform="translate(45.21 45.136)">
    <g id="Group_278" data-name="Group 278">
      <path id="Path_29" data-name="Path 29" d="M372.119,360.821a.942.942,0,0,0-1.027.2l-10.3,10.3a.942.942,0,0,0,.667,1.609h10.3a.942.942,0,0,0,.942-.942v-10.3A.943.943,0,0,0,372.119,360.821Zm-8.385,10.227,7.081-7.081v7.081Z" transform="translate(-360.517 -360.749)"/>
    </g>
  </g>
  <g id="Group_281" data-name="Group 281">
    <g id="Group_280" data-name="Group 280">
      <path id="Path_30" data-name="Path 30" d="M63.624,30.922a.942.942,0,0,0-1.027.2l-2.822,2.822V14.759a.942.942,0,0,0-.942-.942H51.591l2.628-2.628h0l2.533-2.533a2.874,2.874,0,0,0,0-4.064L53.825,1.661a2.874,2.874,0,0,0-4.064,0L47.227,4.2,44.166,7.257l-6.559,6.559H8.354V4.493a.942.942,0,0,0-.942-.942A7.421,7.421,0,0,0,0,10.963V50.989a.945.945,0,0,0,.022.2,7.138,7.138,0,0,0,7.116,6.6h28.8l-5.424,5.424a.942.942,0,0,0,.666,1.609H63.264a.942.942,0,0,0,.942-.942V31.793A.943.943,0,0,0,63.624,30.922ZM51.094,2.994a.99.99,0,0,1,1.4,0l2.929,2.929a.99.99,0,0,1,0,1.4L53.554,9.189,49.227,4.862Zm-3.2,3.2,4.327,4.327-1.729,1.729L46.165,7.924ZM62.321,42.382H60.583a.942.942,0,0,0,0,1.885h1.739v2.84H60.583a.942.942,0,0,0,0,1.885h1.739v2.84H60.583a.942.942,0,0,0,0,1.885h1.739v2.84H60.583a.942.942,0,0,0,0,1.885h1.739v4.495H33.454l9.519-9.519a.942.942,0,0,0-1.333-1.333L37.821,55.9H7.139a5.224,5.224,0,0,1-5.25-5.084q.008-.269.042-.532v0q.016-.125.038-.249l.005-.028q.02-.11.044-.22l.014-.061q.021-.093.046-.184c.009-.033.018-.066.028-.1s.028-.1.043-.143.031-.094.048-.141.023-.065.035-.1c.023-.062.047-.123.072-.183l.022-.053c.032-.075.066-.15.1-.223l0-.009a5.548,5.548,0,0,1,3.856-3.016l.014,0c.078-.016.157-.03.236-.042l.04-.007c.072-.011.144-.019.216-.028l.061-.007c.07-.007.14-.012.211-.016l.067,0q.138-.007.279-.007a.942.942,0,0,0,.942-.942V37.687a.942.942,0,1,0-1.885,0v5.95a7.361,7.361,0,0,0-4.233,2.048c-.123.12-.239.244-.352.37V10.963A5.537,5.537,0,0,1,6.469,5.516v28.4h0a.942.942,0,0,0,1.885,0h0V15.7H35.722l-5.21,5.21a.942.942,0,0,0,1.333,1.333l6.818-6.818h0l6.168-6.168,4.327,4.327-.508.508h0l-19,19-4.327-4.327,3.746-3.746a.942.942,0,0,0-1.333-1.333L23.322,28.1a.946.946,0,0,0-.066.074l-.02.027c-.013.018-.026.035-.038.054l-.02.033c-.01.018-.02.035-.03.054s-.011.024-.017.036-.016.037-.023.056l-.008.02-1.836,5.2L20.012,37.2a.953.953,0,0,0-.037.143H16.841a.942.942,0,0,0,0,1.885h26.1a.942.942,0,0,0,0-1.885H24.214l5.747-2.029.014-.006c.022-.008.044-.018.066-.027l.026-.012c.023-.011.045-.024.067-.037l.021-.013c.023-.015.045-.03.066-.047l.016-.012a.945.945,0,0,0,.076-.068L49.707,15.7H57.89V35.834L44.41,49.314a.942.942,0,0,0,0,1.333.961.961,0,0,0,.072.065.942.942,0,0,0,1.261-.065h0L62.321,34.068Zm-34.4-8.346-2.7.953-1.8-1.8.953-2.7Z" transform="translate(0 -0.82)"/>
    </g>
  </g>
</svg>
