<svg xmlns="http://www.w3.org/2000/svg" width="17.4" height="10.827" viewBox="0 0 17.4 10.827">
  <path id="Behance" d="M15.714,82.779h-4.36V81.7h4.36v1.083ZM8.451,87.22a2.863,2.863,0,0,1,.422,1.586,3.158,3.158,0,0,1-.481,1.728,3,3,0,0,1-.766.85,2.96,2.96,0,0,1-1.222.544,7.554,7.554,0,0,1-1.529.146H0V81.247H5.229a3.324,3.324,0,0,1,2.8,1.153,2.755,2.755,0,0,1,.5,1.653,2.41,2.41,0,0,1-.5,1.594,2.552,2.552,0,0,1-.824.616A2.4,2.4,0,0,1,8.451,87.22ZM2.5,85.515H4.788a2.171,2.171,0,0,0,1.145-.268,1.023,1.023,0,0,0,.439-.952.969.969,0,0,0-.582-1,4.09,4.09,0,0,0-1.278-.169H2.5Zm4.1,3.136a1.161,1.161,0,0,0-.689-1.16,2.713,2.713,0,0,0-1.083-.184H2.5v2.885H4.785a2.542,2.542,0,0,0,1.1-.19A1.365,1.365,0,0,0,6.592,88.651ZM17.331,86.89a10.185,10.185,0,0,1,.067,1.54H11.752a1.854,1.854,0,0,0,.81,1.636,2.042,2.042,0,0,0,1.118.291,1.575,1.575,0,0,0,1.542-.888h2.07a2.521,2.521,0,0,1-.751,1.4A3.767,3.767,0,0,1,13.623,92a4.233,4.233,0,0,1-2.732-.954,3.769,3.769,0,0,1-1.182-3.107,4.2,4.2,0,0,1,1.067-3.092,3.74,3.74,0,0,1,2.774-1.075,4.421,4.421,0,0,1,1.824.363,3.141,3.141,0,0,1,1.339,1.148A3.828,3.828,0,0,1,17.331,86.89Zm-2.037.2a1.694,1.694,0,0,0-.542-1.226,1.767,1.767,0,0,0-1.2-.42,1.608,1.608,0,0,0-1.21.445,2.09,2.09,0,0,0-.541,1.2h3.494Z" transform="translate(0 -81.247)" fill="#919191"/>
</svg>
