<svg xmlns="http://www.w3.org/2000/svg" width="7.662" height="14.172" viewBox="0 0 7.662 14.172">
  <path id="Path_9" data-name="Path 9" d="M29.451,0,27.613,0a3.227,3.227,0,0,0-3.4,3.488V5.1H22.366a.289.289,0,0,0-.289.289v2.33A.289.289,0,0,0,22.366,8h1.848v5.879a.289.289,0,0,0,.289.289h2.411a.289.289,0,0,0,.289-.289V8h2.161a.289.289,0,0,0,.289-.289V5.385a.289.289,0,0,0-.289-.289H27.2V3.733c0-.655.156-.988,1.01-.988H29.45a.289.289,0,0,0,.289-.289V.292A.289.289,0,0,0,29.451,0Z" transform="translate(-22.077)" fill="#919191"/>
</svg>
