<svg height="14.172" viewBox="0 0 7.662 14.172" width="7.662" xmlns="http://www.w3.org/2000/svg"><path d="m29.451 0h-1.838a3.227 3.227 0 0 0 -3.4 3.488v1.612h-1.847a.289.289 0 0 0 -.289.289v2.33a.289.289 0 0 0 .289.281h1.848v5.879a.289.289 0 0 0 .289.289h2.411a.289.289 0 0 0 .289-.289v-5.879h2.161a.289.289 0 0 0 .289-.289v-2.326a.289.289 0 0 0 -.289-.289h-2.164v-1.363c0-.655.156-.988 1.01-.988h1.24a.289.289 0 0 0 .289-.289v-2.164a.289.289 0 0 0 -.288-.292z" fill="#919191" transform="translate(-22.077)"/></svg>