<svg height="14.159" viewBox="0 0 14.817 14.159" width="14.817" xmlns="http://www.w3.org/2000/svg"><path d="m14.817 18.239v5.478h-3.176v-5.111c0-1.284-.459-2.16-1.609-2.16a1.738 1.738 0 0 0 -1.632 1.161 2.173 2.173 0 0 0 -.105.774v5.335h-3.174s.043-8.657 0-9.553h3.179v1.354l-.021.031h.021v-.031a3.154 3.154 0 0 1 2.863-1.579c2.087.001 3.654 1.362 3.654 4.301zm-13.017-8.681a1.655 1.655 0 1 0 -.042 3.3h.021a1.656 1.656 0 1 0 .021-3.3zm-1.611 14.159h3.175v-9.554h-3.175z" fill="#919191" transform="translate(0 -9.558)"/></svg>