<svg height="14.203" viewBox="0 0 10.574 14.203" width="10.574" xmlns="http://www.w3.org/2000/svg"><path d="m20.3 10.652h-3.5a1.748 1.748 0 0 1 -1.753-1.759v-1.248h4.994a1.651 1.651 0 0 0 1.64-1.645 1.654 1.654 0 0 0 -1.65-1.646h-4.989v-2.578a1.716 1.716 0 0 0 -.519-1.253 1.685 1.685 0 0 0 -1.243-.523 1.73 1.73 0 0 0 -1.263.513 1.709 1.709 0 0 0 -.517 1.265v7.115a5.12 5.12 0 0 0 1.552 3.752 5.094 5.094 0 0 0 3.748 1.555h3.5a1.773 1.773 0 0 0 1.251-3.029 1.711 1.711 0 0 0 -1.251-.519z" fill="#919191" transform="translate(-11.5)"/></svg>