<svg xmlns="http://www.w3.org/2000/svg" width="10.574" height="14.203" viewBox="0 0 10.574 14.203">
  <path id="Twitter" d="M20.3,10.652H16.8a1.748,1.748,0,0,1-1.753-1.759V7.645h4.994A1.651,1.651,0,0,0,21.681,6a1.654,1.654,0,0,0-1.65-1.646H15.042V1.776A1.716,1.716,0,0,0,14.523.523,1.685,1.685,0,0,0,13.28,0a1.73,1.73,0,0,0-1.263.513A1.709,1.709,0,0,0,11.5,1.778V8.893a5.12,5.12,0,0,0,1.552,3.752A5.094,5.094,0,0,0,16.8,14.2h3.5a1.773,1.773,0,0,0,1.251-3.029A1.711,1.711,0,0,0,20.3,10.652Z" transform="translate(-11.5 0)" fill="#919191"/>
</svg>
